HIERARCHY
ROOT Hips
{
    OFFSET 0.000000 0.000000 0.000000
    CHANNELS 6 Xposition Yposition Zposition Zrotation Xrotation Yrotation
    JOINT Spine
    {
        OFFSET -0.000000 8.129577 0.000000
        CHANNELS 3 Zrotation Xrotation Yrotation
        JOINT Spine1
        {
            OFFSET -0.000000 26.390701 0.000000
            CHANNELS 3 Zrotation Xrotation Yrotation
            JOINT Neck
            {
                OFFSET -0.000000 26.282320 2.389302
                CHANNELS 3 Zrotation Xrotation Yrotation
                JOINT Head
                {
                    OFFSET -0.000000 13.879765 -1.982823
                    CHANNELS 3 Zrotation Xrotation Yrotation
                    End Site
                    {
                        OFFSET -0.000000 24.785294 0.000000
                    }
                }
            }
            JOINT LeftShoulder
            {
                OFFSET 3.977886 23.574526 -0.273520
                CHANNELS 3 Zrotation Xrotation Yrotation
                JOINT LeftArm
                {
                    OFFSET 13.762619 0.000000 0.000000
                    CHANNELS 3 Zrotation Xrotation Yrotation
                    JOINT LeftForeArm
                    {
                        OFFSET 26.101372 0.000000 0.000000
                        CHANNELS 3 Zrotation Xrotation Yrotation
                        JOINT LeftHand
                        {
                            OFFSET 29.959852 0.000000 0.000000
                            CHANNELS 3 Zrotation Xrotation Yrotation
                            End Site
                            {
                                OFFSET 14.871177 0.000000 0.000000
                            }
                        }
                    }
                }
            }
            JOINT RightShoulder
            {
                OFFSET -3.951699 23.574526 -0.273520
                CHANNELS 3 Zrotation Xrotation Yrotation
                JOINT RightArm
                {
                    OFFSET -13.762619 0.000000 0.000000
                    CHANNELS 3 Zrotation Xrotation Yrotation
                    JOINT RightForeArm
                    {
                        OFFSET -26.101372 0.000000 0.000000
                        CHANNELS 3 Zrotation Xrotation Yrotation
                        JOINT RightHand
                        {
                            OFFSET -29.959852 0.000000 0.000000
                            CHANNELS 3 Zrotation Xrotation Yrotation
                            End Site
                            {
                                OFFSET -14.871177 0.000000 0.000000
                            }
                        }
                    }
                }
            }
        }
    }
    JOINT LeftUpLeg
    {
        OFFSET 9.914117 0.000000 0.000000
        CHANNELS 3 Zrotation Xrotation Yrotation
        JOINT LeftLeg
        {
            OFFSET -0.000000 -41.427933 0.000000
            CHANNELS 3 Zrotation Xrotation Yrotation
            JOINT LeftFoot
            {
                OFFSET -0.000000 -41.025417 0.000000
                CHANNELS 3 Zrotation Xrotation Yrotation
                JOINT LeftToeBase
                {
                    OFFSET -0.000000 -6.444176 14.871177
                    CHANNELS 3 Zrotation Xrotation Yrotation
                    End Site
                    {
                        OFFSET -0.000000 0.000000 3.965647
                    }
                }
            }
        }
    }
    JOINT RightUpLeg
    {
        OFFSET -9.914117 0.000000 0.000000
        CHANNELS 3 Zrotation Xrotation Yrotation
        JOINT RightLeg
        {
            OFFSET -0.000000 -41.427933 0.000000
            CHANNELS 3 Zrotation Xrotation Yrotation
            JOINT RightFoot
            {
                OFFSET -0.000000 -41.025417 0.000000
                CHANNELS 3 Zrotation Xrotation Yrotation
                JOINT RightToeBase
                {
                    OFFSET -0.000000 -6.444176 14.871177
                    CHANNELS 3 Zrotation Xrotation Yrotation
                    End Site
                    {
                        OFFSET -0.000000 0.000000 3.965647
                    }
                }
            }
        }
    }
}
MOTION
Frames:    13
Frame Time:    0.004000
-38.259575    83.586052    -208.694321    0.806029    1.201380    7.210739    -1.080131    -2.010573    -2.122296    -0.909156    -3.923555    -2.134491    0.509126    9.557530    -4.192042    2.111811    -2.394992    -4.050267    11.038135    4.190647    -0.039092    -14.780796    2.092373    0.305740    -0.215723    -0.683447    -1.928638    5.207474    -0.732968    -1.006585    -8.423746    1.795132    0.247036    17.306906    8.862348    -5.393047    -4.551985    -3.149903    -0.965484    -0.415234    -3.208045    5.472528    -1.515439    2.479880    -2.117445    0.712764    -3.471199    -0.744573    1.623386    -1.437272    4.218803    0.000000    0.000000    0.000000    -0.749256    4.319164    2.889033    1.140678    -6.538754    5.080781    -0.985675    -1.112297    -15.047473    0.000000    0.000000    0.000000    
-38.250500    83.585480    -208.687347    0.806437    1.210616    7.217643    -1.065299    -2.034175    -2.132727    -0.935936    -3.921275    -2.145855    0.515257    9.562898    -4.193493    2.131645    -2.381018    -4.049144    11.060803    4.183451    -0.041427    -14.772208    2.055040    0.300539    -0.176437    -0.884143    -1.921956    5.191389    -0.932568    -1.001761    -8.407433    1.799592    0.256483    17.302607    8.843385    -5.390474    -4.556253    -3.197800    -0.950494    -0.466228    -3.257527    5.408484    -1.526510    2.467557    -2.148029    0.718112    -3.452843    -0.733843    1.646672    -1.455687    4.233270    0.000000    0.000000    0.000000    -0.757472    4.311615    2.863850    1.146463    -6.532815    5.084528    -1.000940    -1.117481    -15.030334    0.000000    0.000000    0.000000    
-38.256180    83.585503    -208.681244    0.797497    1.190263    7.194902    -1.068200    -2.018536    -2.123789    -0.911982    -3.918569    -2.136196    0.511115    9.557960    -4.193813    2.122811    -2.380882    -4.050682    11.055429    4.180110    -0.027668    -14.762607    2.056382    0.283484    -0.219993    -0.758749    -1.941294    5.185126    -0.808118    -1.006112    -8.422600    1.800623    0.247994    17.313206    8.858452    -5.379531    -4.504289    -3.337069    -0.876358    -0.960113    -3.413365    5.004136    -1.506526    2.490020    -2.106708    0.710135    -3.447607    -0.772156    1.659351    -1.461506    4.246415    0.000000    0.000000    0.000000    -0.741910    4.331244    2.915431    1.139078    -6.530571    5.096354    -1.001791    -1.114164    -15.065599    0.000000    0.000000    0.000000    
-38.254871    83.586212    -208.677551    0.800277    1.184746    7.195501    -1.069543    -2.012879    -2.127177    -0.916965    -3.926303    -2.139811    0.527070    9.567419    -4.194859    2.107682    -2.385187    -4.055112    11.061610    4.188327    -0.024884    -14.753556    2.051412    0.276227    -0.154511    -0.881605    -1.906132    4.948034    -0.932264    -1.112424    -8.410023    1.808908    0.244686    17.301702    8.851933    -5.370938    -4.570506    -3.218299    -0.941559    -0.471048    -3.277939    5.384617    -1.509297    2.490034    -2.111688    0.709372    -3.430385    -0.796116    1.657765    -1.471654    4.280295    0.000000    0.000000    0.000000    -0.742646    4.335752    2.908128    1.138975    -6.522687    5.080332    -1.015232    -1.113505    -15.043036    0.000000    0.000000    0.000000    
-38.255753    83.585564    -208.672379    0.795364    1.177281    7.186693    -1.073357    -2.010323    -2.128101    -0.894204    -3.928331    -2.139954    0.511086    9.587924    -4.174318    2.112618    -2.376413    -4.031991    11.045437    4.194733    -0.025781    -14.745333    2.065545    0.279077    -0.205426    -0.695561    -1.921942    4.953566    -0.748030    -1.131675    -8.427233    1.814435    0.253254    17.309980    8.851065    -5.372662    -4.582052    -3.214059    -0.932119    -0.488813    -3.274122    5.354867    -1.503555    2.497870    -2.107445    0.707645    -3.420346    -0.747459    1.656001    -1.493312    4.236550    0.000000    0.000000    0.000000    -0.733349    4.339765    2.913413    1.135292    -6.511944    5.075707    -0.997741    -1.125504    -15.043872    0.000000    0.000000    0.000000    
-38.255932    83.585701    -208.666748    0.789816    1.178572    7.189019    -1.065867    -2.021819    -2.130698    -0.903405    -3.923215    -2.142827    0.520990    9.591354    -4.195081    2.118187    -2.412660    -4.052644    11.069112    4.178662    -0.033088    -14.762849    2.094146    0.283564    -0.137460    -0.924353    -1.911660    4.915298    -0.975731    -1.142970    -8.414467    1.810199    0.251567    17.301603    8.840973    -5.374173    -4.594824    -3.180733    -0.929319    -0.417023    -3.237550    5.390342    -1.498546    2.490474    -2.096903    0.707155    -3.405169    -0.798456    1.659682    -1.507047    4.278224    0.000000    0.000000    0.000000    -0.726774    4.344314    2.914213    1.132104    -6.519529    5.064164    -1.069485    -1.114375    -15.016703    0.000000    0.000000    0.000000    
-38.256378    83.585320    -208.663528    0.791737    1.175322    7.180398    -1.071091    -2.023313    -2.128995    -0.901337    -3.922409    -2.140966    0.524038    9.596336    -4.202212    2.119493    -2.414790    -4.059978    11.064285    4.180830    -0.031809    -14.745949    2.095063    0.276162    -0.138559    -0.945065    -1.911586    4.911522    -0.997122    -1.158729    -8.406536    1.813133    0.257127    17.297131    8.836936    -5.376234    -4.598314    -3.177046    -0.920923    -0.451485    -3.235048    5.357649    -1.503543    2.496033    -2.083314    0.712924    -3.402545    -0.775369    1.647837    -1.508433    4.253965    0.000000    0.000000    0.000000    -0.730109    4.340049    2.915470    1.137255    -6.499285    5.098538    -1.020553    -1.135611    -15.055947    0.000000    0.000000    0.000000    
-38.254444    83.584305    -208.658218    0.793776    1.161364    7.176182    -1.073988    -2.014940    -2.130521    -0.889550    -3.917278    -2.142052    0.523720    9.592920    -4.184342    2.099139    -2.380967    -4.045294    11.059649    4.184780    -0.025305    -14.740325    2.121504    0.267044    -0.183162    -0.821604    -1.925875    4.933474    -0.875256    -1.173173    -8.423143    1.811831    0.251787    17.297962    8.813120    -5.366374    -4.609413    -3.124193    -0.920838    -0.391165    -3.179605    5.401985    -1.504398    2.514406    -2.093669    0.716504    -3.401255    -0.789072    1.649156    -1.520876    4.270608    0.000000    0.000000    0.000000    -0.730451    4.355083    2.899108    1.137925    -6.495856    5.097970    -1.014442    -1.141093    -15.036579    0.000000    0.000000    0.000000    
-38.256233    83.584885    -208.654694    0.789457    1.167456    7.169459    -1.073671    -2.028219    -2.128343    -0.893861    -3.914271    -2.139916    0.550105    9.596870    -4.184362    2.083618    -2.384198    -4.049409    11.071708    4.171486    -0.032184    -14.737183    2.140788    0.268361    -0.145083    -0.982627    -1.915569    4.938431    -1.035338    -1.165837    -8.401292    1.821710    0.245984    17.275787    8.774484    -5.359530    -4.613895    -3.089541    -0.908531    -0.380417    -3.144021    5.410724    -1.500119    2.510810    -2.078177    0.714355    -3.408246    -0.796913    1.649505    -1.509481    4.282710    0.000000    0.000000    0.000000    -0.724186    4.344390    2.922107    1.133523    -6.488228    5.068434    -1.062943    -1.139090    -15.014196    0.000000    0.000000    0.000000    
-38.256298    83.583984    -208.648224    0.789606    1.156218    7.166065    -1.077490    -2.025375    -2.130379    -0.884874    -3.906622    -2.141507    0.532312    9.586023    -4.189580    2.109686    -2.367213    -4.049854    11.080420    4.152803    -0.027739    -14.742739    2.164271    0.265446    -0.145171    -0.998831    -1.916703    4.956153    -1.051806    -1.166460    -8.414112    1.817466    0.248843    17.285900    8.765331    -5.359273    -4.619938    -3.073841    -0.899522    -0.403952    -3.129076    5.390957    -1.498682    2.522194    -2.070564    0.713501    -3.398524    -0.776000    1.665464    -1.521573    4.255280    0.000000    0.000000    0.000000    -0.724956    4.356884    2.919617    1.139056    -6.480783    5.092232    -1.016483    -1.150078    -15.046529    0.000000    0.000000    0.000000    
-38.257145    83.583015    -208.641357    0.789888    1.149976    7.155724    -1.083568    -2.026418    -2.128105    -0.871930    -3.908374    -2.138685    0.523253    9.601201    -4.191916    2.118537    -2.378201    -4.050005    11.073767    4.155481    -0.035515    -14.739305    2.207171    0.267413    -0.135384    -1.019799    -1.911319    4.971514    -1.072913    -1.171774    -8.421830    1.815034    0.257434    17.285597    8.740237    -5.367657    -4.622619    -3.045434    -0.890232    -0.400286    -3.100126    5.384500    -1.498314    2.534071    -2.075936    0.715890    -3.393229    -0.774158    1.651235    -1.534426    4.274931    0.000000    0.000000    0.000000    -0.718955    4.364002    2.913743    1.130006    -6.478662    5.069434    -1.002343    -1.159903    -15.004938    0.000000    0.000000    0.000000    
-38.259155    83.583008    -208.636230    0.786565    1.146548    7.144536    -1.086096    -2.034203    -2.123412    -0.866495    -3.896992    -2.133609    0.521077    9.597047    -4.191702    2.138555    -2.376836    -4.046426    11.080078    4.148225    -0.037763    -14.730626    2.186897    0.266774    -0.154493    -0.981812    -1.925164    5.007768    -1.035765    -1.174079    -8.411685    1.816219    0.249599    17.278599    8.744432    -5.363575    -4.631520    -3.038563    -0.880108    -0.409531    -3.093322    5.380986    -1.498396    2.543434    -2.054779    0.726534    -3.403184    -0.776694    1.657011    -1.539880    4.258272    0.000000    0.000000    0.000000    -0.713874    4.366249    2.922918    1.132719    -6.474775    5.086154    -1.007166    -1.159743    -15.023024    0.000000    0.000000    0.000000    
-38.262314    83.581367    -208.628845    0.781071    1.132542    7.140691    -1.083607    -2.030627    -2.124239    -0.863960    -3.888472    -2.134385    0.529435    9.601065    -4.195811    2.136192    -2.390505    -4.051331    11.091372    4.134851    -0.044166    -14.739200    2.226600    0.271127    -0.134198    -1.024207    -1.918512    5.027568    -1.077961    -1.172368    -8.409290    1.818388    0.244731    17.263376    8.697376    -5.350994    -4.623878    -3.006289    -0.878478    -0.387198    -3.060008    5.414735    -1.484792    2.560562    -2.059957    0.717583    -3.401659    -0.770143    1.649126    -1.543760    4.265545    0.000000    0.000000    0.000000    -0.698750    4.381637    2.920411    1.120221    -6.472233    5.072125    -1.092713    -1.155200    -14.987374    0.000000    0.000000    0.000000    
